# Blender 5.1.1
# www.blender.org
mtllib cone.mtl
o Cylinder
v 0.000000 1.000000 0.514486
v 0.382683 0.923880 0.514486
v 0.707107 0.707107 0.514486
v 0.923879 0.382684 0.514487
v 1.000000 0.000000 0.514487
v 0.923879 -0.382683 0.514487
v 0.707107 -0.707107 0.514487
v 0.382683 -0.923880 0.514487
v -0.000000 -1.000000 0.514487
v -0.382683 -0.923880 0.514487
v -0.707107 -0.707107 0.514487
v -0.923879 -0.382683 0.514487
v -1.000000 0.000000 0.514487
v -0.923879 0.382684 0.514487
v -0.707107 0.707107 0.514486
v -0.382683 0.923880 0.514486
v -0.000000 0.755309 0.296780
v 0.289044 0.697815 0.296780
v 0.534084 0.534084 0.296780
v 0.697815 0.289044 0.296780
v 0.755309 0.000000 0.296780
v 0.697815 -0.289044 0.296780
v 0.534084 -0.534084 0.296780
v 0.289044 -0.697815 0.296780
v -0.000000 -0.755309 0.296780
v -0.289044 -0.697815 0.296780
v -0.534084 -0.534084 0.296780
v -0.697815 -0.289044 0.296780
v -0.755309 0.000000 0.296780
v -0.697815 0.289044 0.296780
v -0.534084 0.534084 0.296780
v -0.289044 0.697815 0.296780
v -0.000000 0.049055 0.076024
v 0.018772 0.045320 0.076024
v 0.034687 0.034687 0.076024
v 0.045320 0.018772 0.076024
v 0.049055 -0.000000 0.076024
v 0.045320 -0.018772 0.076024
v 0.034687 -0.034687 0.076024
v 0.018772 -0.045321 0.076024
v -0.000000 -0.049055 0.076024
v -0.018772 -0.045321 0.076024
v -0.034687 -0.034687 0.076024
v -0.045320 -0.018772 0.076024
v -0.049055 -0.000000 0.076024
v -0.045320 0.018772 0.076024
v -0.034687 0.034687 0.076024
v -0.018772 0.045320 0.076024
vn -0.0000 -0.6647 0.7471
vn -0.2544 -0.6141 0.7471
vn -0.4700 -0.4700 0.7471
vn -0.6141 -0.2544 0.7471
vn -0.6647 -0.0000 0.7471
vn -0.6141 0.2544 0.7471
vn -0.4700 0.4700 0.7471
vn -0.2544 0.6141 0.7471
vn -0.0000 0.6647 0.7471
vn 0.2544 0.6141 0.7471
vn 0.4700 0.4700 0.7471
vn 0.6141 0.2544 0.7471
vn 0.6647 -0.0000 0.7471
vn 0.6141 -0.2544 0.7471
vn 0.4700 -0.4700 0.7471
vn 0.2544 -0.6141 0.7471
vn -0.0000 -0.5119 0.8590
vn -0.1959 -0.4730 0.8590
vn -0.3620 -0.3620 0.8590
vn -0.4730 -0.1959 0.8590
vn -0.5119 -0.0000 0.8590
vn -0.4730 0.1959 0.8590
vn -0.3620 0.3620 0.8590
vn -0.1959 0.4730 0.8590
vn -0.0000 0.5119 0.8590
vn 0.1959 0.4730 0.8590
vn 0.3620 0.3620 0.8590
vn 0.4730 0.1959 0.8590
vn 0.5119 -0.0000 0.8590
vn 0.4730 -0.1959 0.8590
vn 0.3620 -0.3620 0.8590
vn 0.1959 -0.4730 0.8590
vn -0.0000 -0.2983 0.9545
vn -0.1142 -0.2756 0.9545
vn -0.2110 -0.2110 0.9545
vn -0.2756 -0.1142 0.9545
vn -0.2983 -0.0000 0.9545
vn -0.2756 0.1142 0.9545
vn -0.2110 0.2110 0.9545
vn -0.1142 0.2756 0.9545
vn -0.0000 0.2983 0.9545
vn 0.1142 0.2756 0.9545
vn 0.2110 0.2110 0.9545
vn 0.2756 0.1142 0.9545
vn 0.2983 -0.0000 0.9545
vn 0.2756 -0.1142 0.9545
vn 0.2110 -0.2110 0.9545
vn 0.1142 -0.2756 0.9545
vt 0.308658 0.961940
vt 0.355478 0.848907
vt 0.500000 0.877655
vt 0.500000 1.000000
vt 0.146447 0.853553
vt 0.232958 0.767042
vt 0.038060 0.691342
vt 0.151093 0.644522
vt 0.000000 0.500000
vt 0.122345 0.500000
vt 0.038060 0.308658
vt 0.151093 0.355478
vt 0.146447 0.146447
vt 0.232958 0.232958
vt 0.308658 0.038060
vt 0.355478 0.151093
vt 0.500000 0.000000
vt 0.500000 0.122345
vt 0.691342 0.038060
vt 0.644522 0.151093
vt 0.853553 0.146447
vt 0.767042 0.232958
vt 0.961940 0.308658
vt 0.848907 0.355478
vt 1.000000 0.500000
vt 0.877654 0.500000
vt 0.961940 0.691342
vt 0.848907 0.644522
vt 0.853553 0.853553
vt 0.767042 0.767042
vt 0.691342 0.961940
vt 0.644522 0.848907
vt 0.490614 0.522660
vt 0.500000 0.524527
vt 0.482657 0.517343
vt 0.477340 0.509386
vt 0.475473 0.500000
vt 0.477340 0.490614
vt 0.482657 0.482656
vt 0.490614 0.477340
vt 0.500000 0.475473
vt 0.509386 0.477340
vt 0.517343 0.482656
vt 0.522660 0.490614
vt 0.524527 0.500000
vt 0.522660 0.509386
vt 0.517343 0.517343
vt 0.509386 0.522660
s 1
f 16/1/16 32/2/32 17/3/17 1/4/1
f 15/5/15 31/6/31 32/2/32 16/1/16
f 14/7/14 30/8/30 31/6/31 15/5/15
f 13/9/13 29/10/29 30/8/30 14/7/14
f 12/11/12 28/12/28 29/10/29 13/9/13
f 11/13/11 27/14/27 28/12/28 12/11/12
f 10/15/10 26/16/26 27/14/27 11/13/11
f 9/17/9 25/18/25 26/16/26 10/15/10
f 8/19/8 24/20/24 25/18/25 9/17/9
f 7/21/7 23/22/23 24/20/24 8/19/8
f 6/23/6 22/24/22 23/22/23 7/21/7
f 5/25/5 21/26/21 22/24/22 6/23/6
f 4/27/4 20/28/20 21/26/21 5/25/5
f 3/29/3 19/30/19 20/28/20 4/27/4
f 2/31/2 18/32/18 19/30/19 3/29/3
f 1/4/1 17/3/17 18/32/18 2/31/2
f 32/2/32 48/33/48 33/34/33 17/3/17
f 31/6/31 47/35/47 48/33/48 32/2/32
f 30/8/30 46/36/46 47/35/47 31/6/31
f 29/10/29 45/37/45 46/36/46 30/8/30
f 28/12/28 44/38/44 45/37/45 29/10/29
f 27/14/27 43/39/43 44/38/44 28/12/28
f 26/16/26 42/40/42 43/39/43 27/14/27
f 25/18/25 41/41/41 42/40/42 26/16/26
f 24/20/24 40/42/40 41/41/41 25/18/25
f 23/22/23 39/43/39 40/42/40 24/20/24
f 22/24/22 38/44/38 39/43/39 23/22/23
f 21/26/21 37/45/37 38/44/38 22/24/22
f 20/28/20 36/46/36 37/45/37 21/26/21
f 19/30/19 35/47/35 36/46/36 20/28/20
f 18/32/18 34/48/34 35/47/35 19/30/19
f 17/3/17 33/34/33 34/48/34 18/32/18
